<svg width="101" height="95" viewBox="0 0 101 95" fill="none" xmlns="http://www.w3.org/2000/svg">
<path d="M50.0274 5.96216C50.1825 5.51316 50.8175 5.51316 50.9726 5.96216L59.9549 31.9645C60.4422 33.3752 61.7705 34.3217 63.263 34.3217H92.057C92.5487 34.3217 92.7451 34.9571 92.3391 35.2345L69.2593 51.0068C67.9568 51.8969 67.4108 53.5483 67.9259 55.0393L76.7905 80.7012C76.9478 81.1566 76.4335 81.5491 76.0358 81.2773L52.4748 65.1761C51.284 64.3624 49.716 64.3624 48.5252 65.1761L24.9642 81.2773C24.5665 81.5491 24.0522 81.1565 24.2095 80.7012L33.0741 55.0393C33.5892 53.5482 33.0432 51.8969 31.7407 51.0068L8.66089 35.2345C8.25489 34.9571 8.45126 34.3217 8.943 34.3217H37.737C39.2295 34.3217 40.5578 33.3752 41.0451 31.9645L50.0274 5.96216Z" fill="#EF8113" stroke="black" stroke-width="3"/>
</svg>
